<svg id="Capa_1" enable-background="new 0 0 512 512" height="512" viewBox="0 0 512 512" width="512" xmlns="http://www.w3.org/2000/svg"><g><g><path d="m413.383 471.366c0 18.299-14.834 33.133-33.133 33.133h-248.5c-18.299 0-33.133-14.834-33.133-33.133v-430.732c0-18.299 14.834-33.133 33.133-33.133h248.499c18.299 0 33.133 14.834 33.133 33.133z" fill="#595a66"/><path d="m363.683 40.633c9.15 0 16.567 7.417 16.567 16.567l.001 397.6c0 9.15-7.417 16.567-16.567 16.567h-215.368c-9.15 0-16.567-7.417-16.567-16.567v-397.6c0-9.149 7.417-16.567 16.567-16.567h25.454c3.138 0 6.006 1.773 7.409 4.579l9.698 19.398c2.806 5.613 8.543 9.158 14.818 9.158h100.608c6.275 0 12.012-3.545 14.818-9.158l9.7-19.399c1.403-2.806 4.271-4.579 7.409-4.579h25.453z" fill="#ecf0f9"/><path d="m413.382 40.634c0-18.299-14.834-33.133-33.133-33.133h-23c18.299 0 33.133 14.834 33.133 33.133l.001 430.732c0 18.299-14.834 33.133-33.133 33.133h23c18.299 0 33.133-14.834 33.133-33.133z" fill="#50515c"/><g><g><path d="m158.178 45.212 9.698 19.398c2.806 5.613 8.543 9.158 14.818 9.158h23.001c-6.275 0-12.012-3.546-14.818-9.158l-9.698-19.398c-1.403-2.806-4.271-4.579-7.409-4.579h-23.001c3.138 0 6.006 1.773 7.409 4.579z" fill="#d8e4f0"/></g><g><path d="m380.25 57.2c0-9.149-7.417-16.567-16.567-16.567h-23.001c9.149 0 16.567 7.417 16.567 16.567l.001 397.6c0 9.15-7.417 16.567-16.567 16.567h23.001c9.15 0 16.567-7.417 16.567-16.567z" fill="#d8e4f0"/></g></g><g><path d="m332.559 237.865-13.918-3.479c-.876-2.54-1.892-5.015-3.058-7.405l7.376-12.292c1.956-3.259 1.442-7.431-1.246-10.119l-14.283-14.282c-2.688-2.688-6.86-3.201-10.119-1.246l-12.292 7.376c-2.39-1.166-4.865-2.182-7.405-3.058l-3.479-13.917c-.922-3.688-4.235-6.274-8.036-6.274h-20.199c-3.801 0-7.114 2.587-8.036 6.274l-3.479 13.917c-2.54.876-5.015 1.892-7.405 3.058l-12.292-7.376c-3.259-1.956-7.431-1.442-10.119 1.246l-14.283 14.282c-2.688 2.688-3.201 6.86-1.246 10.119l7.375 12.292c-1.166 2.39-2.182 4.865-3.058 7.405l-13.918 3.479c-3.688.922-6.274 4.235-6.274 8.036v20.199c0 3.801 2.587 7.114 6.274 8.036l13.918 3.479c.876 2.54 1.892 5.015 3.058 7.405l-7.375 12.292c-1.956 3.259-1.442 7.431 1.246 10.119l14.283 14.283c2.688 2.688 6.86 3.201 10.119 1.246l12.292-7.375c2.39 1.166 4.865 2.182 7.405 3.058l3.479 13.917c.922 3.688 4.235 6.275 8.036 6.275h20.199c3.801 0 7.114-2.587 8.036-6.275l3.479-13.917c2.54-.876 5.015-1.892 7.405-3.058l12.292 7.375c3.259 1.956 7.431 1.442 10.119-1.246l14.283-14.283c2.688-2.688 3.201-6.86 1.246-10.119l-7.376-12.292c1.166-2.39 2.182-4.865 3.058-7.405l13.918-3.479c3.688-.922 6.274-4.235 6.274-8.036v-20.199c.001-3.801-2.586-7.114-6.274-8.036z" fill="#99b4cd"/><path d="m332.559 237.865-13.918-3.479c-.876-2.54-1.892-5.015-3.058-7.405l7.376-12.292c1.956-3.26 1.442-7.431-1.246-10.119l-14.283-14.282c-2.688-2.688-6.86-3.201-10.119-1.246l-8.829 5.298 10.231 10.231c2.688 2.688 3.201 6.86 1.246 10.119l-7.376 12.292c1.166 2.39 2.182 4.864 3.058 7.405l13.918 3.479c3.688.922 6.274 4.235 6.274 8.036v20.198c0 3.801-2.587 7.114-6.274 8.036l-13.918 3.479c-.876 2.54-1.892 5.015-3.058 7.405l7.376 12.292c1.956 3.259 1.442 7.431-1.246 10.119l-10.231 10.231 8.829 5.297c3.26 1.956 7.431 1.442 10.119-1.246l14.283-14.283c2.688-2.688 3.201-6.86 1.246-10.119l-7.376-12.292c1.166-2.39 2.182-4.865 3.058-7.405l13.918-3.479c3.688-.922 6.274-4.235 6.274-8.036v-20.198c.001-3.801-2.586-7.114-6.274-8.036z" fill="#7fa4c7"/><ellipse cx="256" cy="256" fill="#ecf0f9" rx="16.567" ry="16.567" transform="matrix(.54 -.842 .842 .54 -97.716 333.183)"/></g></g><g><path d="m420.883 40.633c0-22.405-18.228-40.633-40.634-40.633h-248.5c-22.405 0-40.633 18.228-40.633 40.633v430.733c0 22.405 18.228 40.633 40.633 40.633h46.484c4.142 0 7.5-3.358 7.5-7.5s-3.358-7.5-7.5-7.5h-46.484c-14.134 0-25.633-11.499-25.633-25.633v-430.733c0-14.134 11.499-25.633 25.633-25.633h248.5c14.135 0 25.634 11.499 25.634 25.633l.001 430.733c0 14.134-11.499 25.633-25.633 25.633h-172.018c-4.142 0-7.5 3.358-7.5 7.5s3.358 7.5 7.5 7.5h172.017c22.405 0 40.633-18.228 40.633-40.633z"/><path d="m131.749 344.538c-4.142 0-7.5 3.358-7.5 7.5v102.763c0 13.271 10.796 24.066 24.066 24.066h215.368c13.271 0 24.066-10.796 24.066-24.067v-397.601c0-13.271-10.796-24.066-24.067-24.066h-25.452c-6.018 0-11.427 3.343-14.117 8.725l-9.7 19.399c-1.546 3.091-4.653 5.012-8.11 5.012h-100.607c-3.456 0-6.564-1.921-8.109-5.012l-9.699-19.398c-2.691-5.382-8.1-8.725-14.117-8.725h-25.455c-13.27 0-24.066 10.796-24.066 24.066v264.838c0 4.142 3.358 7.5 7.5 7.5s7.5-3.358 7.5-7.5v-264.839c0-4.999 4.067-9.066 9.066-9.066h25.455c.299 0 .567.166.701.433l9.698 19.398c4.103 8.206 12.352 13.304 21.526 13.304h100.608c9.175 0 17.423-5.098 21.526-13.304l9.7-19.4c.133-.267.401-.432.7-.432h25.453c4.999 0 9.067 4.067 9.067 9.066v397.601c0 4.999-4.067 9.067-9.066 9.067h-215.368c-4.999 0-9.066-4.067-9.066-9.066v-102.762c-.001-4.142-3.358-7.5-7.501-7.5z"/><path d="m256 48.133c4.142 0 7.5-3.358 7.5-7.5s-3.358-7.5-7.5-7.5h-33.133c-4.142 0-7.5 3.358-7.5 7.5s3.358 7.5 7.5 7.5z"/><path d="m289.133 48.133c4.142 0 7.5-3.358 7.5-7.5s-3.358-7.5-7.5-7.5h-8.283c-4.142 0-7.5 3.358-7.5 7.5s3.358 7.5 7.5 7.5z"/><path d="m256 280.067c13.271 0 24.067-10.796 24.067-24.067 0-13.27-10.796-24.067-24.067-24.067-13.27 0-24.067 10.796-24.067 24.067s10.797 24.067 24.067 24.067zm0-33.134c5 0 9.067 4.067 9.067 9.067s-4.067 9.067-9.067 9.067c-4.999 0-9.067-4.067-9.067-9.067 0-4.999 4.068-9.067 9.067-9.067z"/><path d="m177.622 230.589c-7.04 1.76-11.956 8.056-11.956 15.312v20.198c0 7.256 4.916 13.552 11.956 15.312l10.102 2.526c.08.197.161.393.242.588l-5.357 8.928c-3.733 6.222-2.757 14.15 2.373 19.281l14.283 14.283c5.13 5.13 13.059 6.105 19.281 2.373l8.928-5.357c.195.082.391.162.588.242l2.526 10.103c1.76 7.04 8.056 11.956 15.312 11.956h20.198c7.256 0 13.552-4.916 15.312-11.956l2.526-10.103c.197-.08.393-.161.588-.242l8.928 5.357c6.222 3.733 14.15 2.757 19.281-2.373l14.283-14.283c5.13-5.131 6.106-13.059 2.373-19.281l-5.357-8.928c.081-.195.162-.391.242-.588l10.103-2.526c7.04-1.76 11.956-8.056 11.956-15.312v-20.198c0-7.256-4.916-13.552-11.956-15.312l-10.103-2.526c-.08-.197-.161-.393-.242-.588l5.357-8.928c3.733-6.222 2.757-14.15-2.374-19.281l-14.283-14.283c-5.131-5.13-13.059-6.106-19.281-2.373l-8.928 5.357c-.195-.082-.391-.162-.588-.242l-2.526-10.103c-1.76-7.04-8.056-11.956-15.312-11.956h-20.198c-7.256 0-13.552 4.916-15.312 11.956l-2.526 10.103c-.197.08-.393.161-.588.242l-8.928-5.357c-6.222-3.733-14.15-2.757-19.281 2.374l-14.283 14.283c-5.13 5.131-6.106 13.059-2.373 19.281l5.357 8.928c-.081.195-.162.391-.242.588zm17.555 11.072c2.461-.615 4.444-2.432 5.271-4.83.792-2.294 1.703-4.501 2.708-6.561 1.114-2.282.998-4.972-.309-7.149l-7.376-12.293c-.185-.309-.137-.703.118-.957l14.282-14.282c.254-.254.649-.304.958-.118l12.292 7.375c2.177 1.307 4.868 1.423 7.149.309 2.06-1.005 4.267-1.917 6.561-2.708 2.398-.827 4.215-2.81 4.83-5.271l3.479-13.917c.087-.349.4-.593.76-.593h20.198c.36 0 .673.244.76.593l3.479 13.917c.615 2.461 2.432 4.444 4.83 5.271 2.294.791 4.501 1.703 6.561 2.708 2.283 1.115 4.972.998 7.149-.309l12.293-7.375c.309-.186.702-.136.957.118l14.282 14.282c.255.255.303.649.118.957l-7.375 12.293c-1.306 2.177-1.422 4.867-.309 7.149 1.005 2.06 1.916 4.267 2.708 6.561.827 2.397 2.81 4.215 5.271 4.83l13.917 3.48c.349.087.593.4.593.76v20.198c0 .36-.244.673-.593.76l-13.917 3.48c-2.461.615-4.444 2.432-5.271 4.83-.792 2.294-1.703 4.501-2.708 6.561-1.114 2.282-.998 4.972.309 7.149l7.375 12.293c.185.309.137.703-.118.957l-14.282 14.282c-.255.254-.649.304-.957.118l-12.293-7.376c-2.177-1.306-4.867-1.423-7.149-.309-2.06 1.005-4.267 1.917-6.561 2.708-2.397.827-4.215 2.81-4.83 5.271l-3.479 13.917c-.087.349-.4.593-.76.593h-20.198c-.36 0-.673-.244-.76-.593l-3.479-13.917c-.615-2.461-2.432-4.444-4.83-5.271-2.294-.792-4.501-1.703-6.561-2.708-1.041-.508-2.167-.76-3.289-.76-1.339 0-2.675.358-3.859 1.069l-12.292 7.376c-.31.185-.703.136-.957-.118l-14.282-14.282c-.255-.255-.303-.649-.118-.957l7.376-12.293c1.306-2.177 1.422-4.867.309-7.149-1.005-2.06-1.917-4.267-2.708-6.561-.827-2.398-2.81-4.215-5.271-4.83l-13.917-3.48c-.349-.087-.593-.4-.593-.76v-20.198c0-.36.244-.673.593-.76z"/></g></g></svg>